HIERARCHY
ROOT mixamorig:Hips
{
	OFFSET 0.000000 69.776680 0.000000
	CHANNELS 6 Xposition Yposition Zposition Xrotation Yrotation Zrotation
	JOINT mixamorig:Spine
	{
		OFFSET 0.000000 3.962402 -0.274300
		CHANNELS 3 Xrotation Yrotation Zrotation
		JOINT mixamorig:Spine1
		{
			OFFSET 0.000000 14.122147 -0.320033
			CHANNELS 3 Xrotation Yrotation Zrotation
			JOINT mixamorig:Spine2
			{
				OFFSET 0.000000 11.399124 -0.365735
				CHANNELS 3 Xrotation Yrotation Zrotation
				JOINT mixamorig:Neck
				{
					OFFSET 0.000000 9.938187 -0.411442
					CHANNELS 3 Xrotation Yrotation Zrotation
					JOINT mixamorig:Head
					{
						OFFSET 0.000000 8.579102 0.114200
						CHANNELS 3 Xrotation Yrotation Zrotation
						JOINT mixamorig:HeadTop_End
						{
							OFFSET 0.000000 25.089104 0.333900
							CHANNELS 3 Xrotation Yrotation Zrotation
							End Site
							{
								OFFSET 0.000000 25.091324 0.000000
							}
						}
					}
				}
				JOINT mixamorig:LeftShoulder
				{
					OFFSET 4.224100 8.888443 -0.424631
					CHANNELS 3 Xrotation Yrotation Zrotation
					JOINT mixamorig:LeftArm
					{
						OFFSET 8.606815 -2.106979 -0.026412
						CHANNELS 3 Xrotation Yrotation Zrotation
						JOINT mixamorig:LeftForeArm
						{
							OFFSET 18.975199 0.000000 0.000001
							CHANNELS 3 Xrotation Yrotation Zrotation
							JOINT mixamorig:LeftHand
							{
								OFFSET 19.896011 0.000000 0.000001
								CHANNELS 3 Xrotation Yrotation Zrotation
								JOINT mixamorig:LeftHandThumb1
								{
									OFFSET 2.354134 -1.272461 1.802826
									CHANNELS 3 Xrotation Yrotation Zrotation
									JOINT mixamorig:LeftHandThumb2
									{
										OFFSET 1.999432 -1.154373 1.154373
										CHANNELS 3 Xrotation Yrotation Zrotation
										JOINT mixamorig:LeftHandThumb3
										{
											OFFSET 2.113319 -1.220123 1.220126
											CHANNELS 3 Xrotation Yrotation Zrotation
											JOINT mixamorig:LeftHandThumb4
											{
												OFFSET 1.744274 -1.007057 1.007057
												CHANNELS 3 Xrotation Yrotation Zrotation
												End Site
												{
													OFFSET 1.605682 -1.003258 1.219047
												}
											}
										}
									}
								}
								JOINT mixamorig:LeftHandIndex1
								{
									OFFSET 7.198479 -0.169243 1.742686
									CHANNELS 3 Xrotation Yrotation Zrotation
									JOINT mixamorig:LeftHandIndex2
									{
										OFFSET 2.844902 0.000000 0.000000
										CHANNELS 3 Xrotation Yrotation Zrotation
										JOINT mixamorig:LeftHandIndex3
										{
											OFFSET 2.665497 0.000000 0.000000
											CHANNELS 3 Xrotation Yrotation Zrotation
											JOINT mixamorig:LeftHandIndex4
											{
												OFFSET 2.297401 0.000000 0.000000
												CHANNELS 3 Xrotation Yrotation Zrotation
												End Site
												{
													OFFSET 2.297401 0.000000 0.000300
												}
											}
										}
									}
								}
								JOINT mixamorig:LeftHandMiddle1
								{
									OFFSET 6.876549 0.000000 0.000000
									CHANNELS 3 Xrotation Yrotation Zrotation
									JOINT mixamorig:LeftHandMiddle2
									{
										OFFSET 3.256821 0.000000 0.000000
										CHANNELS 3 Xrotation Yrotation Zrotation
										JOINT mixamorig:LeftHandMiddle3
										{
											OFFSET 3.177902 0.000000 0.000000
											CHANNELS 3 Xrotation Yrotation Zrotation
											JOINT mixamorig:LeftHandMiddle4
											{
												OFFSET 2.695129 0.000000 0.000000
												CHANNELS 3 Xrotation Yrotation Zrotation
												End Site
												{
													OFFSET 2.695099 -0.000191 0.012399
												}
											}
										}
									}
								}
								JOINT mixamorig:LeftHandRing1
								{
									OFFSET 6.623886 -0.059456 -1.696961
									CHANNELS 3 Xrotation Yrotation Zrotation
									JOINT mixamorig:LeftHandRing2
									{
										OFFSET 2.958004 0.000000 0.000000
										CHANNELS 3 Xrotation Yrotation Zrotation
										JOINT mixamorig:LeftHandRing3
										{
											OFFSET 2.756901 0.000000 0.000000
											CHANNELS 3 Xrotation Yrotation Zrotation
											JOINT mixamorig:LeftHandRing4
											{
												OFFSET 2.334602 0.000000 0.000000
												CHANNELS 3 Xrotation Yrotation Zrotation
												End Site
												{
													OFFSET 2.334602 -0.000031 0.001500
												}
											}
										}
									}
								}
								JOINT mixamorig:LeftHandPinky1
								{
									OFFSET 6.046967 -0.139206 -3.244337
									CHANNELS 3 Xrotation Yrotation Zrotation
									JOINT mixamorig:LeftHandPinky2
									{
										OFFSET 2.623703 0.000000 0.000000
										CHANNELS 3 Xrotation Yrotation Zrotation
										JOINT mixamorig:LeftHandPinky3
										{
											OFFSET 2.132103 0.000000 0.000000
											CHANNELS 3 Xrotation Yrotation Zrotation
											JOINT mixamorig:LeftHandPinky4
											{
												OFFSET 1.793213 0.000000 0.000000
												CHANNELS 3 Xrotation Yrotation Zrotation
												End Site
												{
													OFFSET 1.793198 0.000099 -0.007099
												}
											}
										}
									}
								}
							}
						}
					}
				}
				JOINT mixamorig:RightShoulder
				{
					OFFSET -4.224100 8.888435 -0.398208
					CHANNELS 3 Xrotation Yrotation Zrotation
					JOINT mixamorig:RightArm
					{
						OFFSET -8.606817 -2.106972 0.026400
						CHANNELS 3 Xrotation Yrotation Zrotation
						JOINT mixamorig:RightForeArm
						{
							OFFSET -18.973604 0.000000 -0.000000
							CHANNELS 3 Xrotation Yrotation Zrotation
							JOINT mixamorig:RightHand
							{
								OFFSET -19.898298 0.000000 -0.000000
								CHANNELS 3 Xrotation Yrotation Zrotation
								JOINT mixamorig:RightHandThumb1
								{
									OFFSET -2.342537 -1.287621 1.805296
									CHANNELS 3 Xrotation Yrotation Zrotation
									JOINT mixamorig:RightHandThumb2
									{
										OFFSET -1.998871 -1.154045 1.154048
										CHANNELS 3 Xrotation Yrotation Zrotation
										JOINT mixamorig:RightHandThumb3
										{
											OFFSET -2.115639 -1.221466 1.221465
											CHANNELS 3 Xrotation Yrotation Zrotation
											JOINT mixamorig:RightHandThumb4
											{
												OFFSET -1.745159 -1.007568 1.007568
												CHANNELS 3 Xrotation Yrotation Zrotation
												End Site
												{
													OFFSET -1.638237 -1.006813 1.174085
												}
											}
										}
									}
								}
								JOINT mixamorig:RightHandIndex1
								{
									OFFSET -7.289619 -0.160568 1.788511
									CHANNELS 3 Xrotation Yrotation Zrotation
									JOINT mixamorig:RightHandIndex2
									{
										OFFSET -2.816299 0.000000 -0.000000
										CHANNELS 3 Xrotation Yrotation Zrotation
										JOINT mixamorig:RightHandIndex3
										{
											OFFSET -2.639603 0.000000 -0.000000
											CHANNELS 3 Xrotation Yrotation Zrotation
											JOINT mixamorig:RightHandIndex4
											{
												OFFSET -2.241501 0.000000 -0.000000
												CHANNELS 3 Xrotation Yrotation Zrotation
												End Site
												{
													OFFSET -2.241501 0.000000 -0.000300
												}
											}
										}
									}
								}
								JOINT mixamorig:RightHandMiddle1
								{
									OFFSET -7.060406 0.000000 -0.000000
									CHANNELS 3 Xrotation Yrotation Zrotation
									JOINT mixamorig:RightHandMiddle2
									{
										OFFSET -3.340210 0.000000 0.000000
										CHANNELS 3 Xrotation Yrotation Zrotation
										JOINT mixamorig:RightHandMiddle3
										{
											OFFSET -3.056713 0.000000 0.000000
											CHANNELS 3 Xrotation Yrotation Zrotation
											JOINT mixamorig:RightHandMiddle4
											{
												OFFSET -2.639503 0.000000 0.000000
												CHANNELS 3 Xrotation Yrotation Zrotation
												End Site
												{
													OFFSET -2.639503 -0.000008 0.000600
												}
											}
										}
									}
								}
								JOINT mixamorig:RightHandRing1
								{
									OFFSET -6.774601 0.049789 -1.636027
									CHANNELS 3 Xrotation Yrotation Zrotation
									JOINT mixamorig:RightHandRing2
									{
										OFFSET -2.923901 0.000000 0.000000
										CHANNELS 3 Xrotation Yrotation Zrotation
										JOINT mixamorig:RightHandRing3
										{
											OFFSET -2.718002 0.000000 0.000000
											CHANNELS 3 Xrotation Yrotation Zrotation
											JOINT mixamorig:RightHandRing4
											{
												OFFSET -2.379601 0.000000 0.000000
												CHANNELS 3 Xrotation Yrotation Zrotation
												End Site
												{
													OFFSET -2.379601 0.000000 -0.000300
												}
											}
										}
									}
								}
								JOINT mixamorig:RightHandPinky1
								{
									OFFSET -6.148533 -0.175697 -3.130196
									CHANNELS 3 Xrotation Yrotation Zrotation
									JOINT mixamorig:RightHandPinky2
									{
										OFFSET -2.627903 0.000000 0.000000
										CHANNELS 3 Xrotation Yrotation Zrotation
										JOINT mixamorig:RightHandPinky3
										{
											OFFSET -2.122501 0.000000 0.000000
											CHANNELS 3 Xrotation Yrotation Zrotation
											JOINT mixamorig:RightHandPinky4
											{
												OFFSET -1.792004 0.000000 0.000000
												CHANNELS 3 Xrotation Yrotation Zrotation
												End Site
												{
													OFFSET -1.792000 0.000046 -0.004500
												}
											}
										}
									}
								}
							}
						}
					}
				}
			}
		}
	}
	JOINT mixamorig:LeftUpLeg
	{
		OFFSET 7.557000 -4.826302 0.300500
		CHANNELS 3 Xrotation Yrotation Zrotation
		JOINT mixamorig:LeftLeg
		{
			OFFSET 0.315538 -24.058289 0.537030
			CHANNELS 3 Xrotation Yrotation Zrotation
			JOINT mixamorig:LeftFoot
			{
				OFFSET -0.315538 -33.061485 0.084935
				CHANNELS 3 Xrotation Yrotation Zrotation
				JOINT mixamorig:LeftToeBase
				{
					OFFSET 0.092043 -7.483322 10.511632
					CHANNELS 3 Xrotation Yrotation Zrotation
					JOINT mixamorig:LeftToe_End
					{
						OFFSET 0.082187 -0.046743 6.420126
						CHANNELS 3 Xrotation Yrotation Zrotation
						End Site
						{
							OFFSET 0.096298 -0.054795 6.419865
						}
					}
				}
			}
		}
	}
	JOINT mixamorig:RightUpLeg
	{
		OFFSET -7.557000 -4.826302 0.300500
		CHANNELS 3 Xrotation Yrotation Zrotation
		JOINT mixamorig:RightLeg
		{
			OFFSET -0.315556 -24.058254 0.712177
			CHANNELS 3 Xrotation Yrotation Zrotation
			JOINT mixamorig:RightFoot
			{
				OFFSET 0.315562 -33.061455 0.096916
				CHANNELS 3 Xrotation Yrotation Zrotation
				JOINT mixamorig:RightToeBase
				{
					OFFSET -0.092061 -7.483409 10.296515
					CHANNELS 3 Xrotation Yrotation Zrotation
					JOINT mixamorig:RightToe_End
					{
						OFFSET -0.082209 -0.046778 6.411424
						CHANNELS 3 Xrotation Yrotation Zrotation
						End Site
						{
							OFFSET -0.096323 -0.054825 6.411163
						}
					}
				}
			}
		}
	}
}
MOTION
Frames: 4
Frame Time: 0.033333
8.780513 67.089371 -30.526203 0.998626 -1.514967 -0.060753 5.879174 0.378391 -1.696818 2.438521 0.305712 -1.025714 2.436924 0.269073 -1.036126 5.825418 -0.949375 -0.810392 0.001370 -7.321539 4.653337 0.000002 0.000000 0.000000 0.536091 2.682209 -8.696853 -15.966619 -42.595044 -58.083061 -0.000015 -51.075741 -0.000008 18.463721 11.289255 29.255316 5.822517 11.837293 7.922390 10.749361 18.988298 -7.923201 4.481317 15.319698 -0.365723 -0.000000 -0.000001 0.000003 -1.190387 1.111900 -40.338291 0.208652 1.685414 -14.112246 0.045755 0.794017 -6.594449 -0.000002 0.000000 -0.000001 0.010539 1.174595 -18.832355 0.012296 0.412166 -3.417438 0.008747 0.347730 -2.882731 0.000002 0.000000 0.000000 0.675190 4.225611 -10.504662 0.048651 0.818747 -6.800728 0.000073 0.032076 -0.265824 -0.000001 0.000000 -0.000003 0.496573 7.062759 -3.768448 0.037548 -3.239045 -7.282393 0.004382 -0.245975 2.038743 -0.000000 -0.000002 0.000004 0.900358 -6.255068 13.358790 -10.910209 44.636837 40.443992 -0.000010 27.412582 -0.000000 16.745290 0.296440 -24.098748 -4.365551 -10.620440 -9.103589 11.432408 -19.248424 1.847041 6.549846 -5.798144 -0.244916 0.000004 0.000005 0.000000 0.127807 2.269700 -3.451916 0.872830 -3.377876 28.968304 0.205957 -1.683051 13.951942 0.000002 0.000000 -0.000001 0.462836 4.043771 -7.143177 0.519952 -2.642803 22.256815 0.145473 -1.057706 8.796374 0.000002 0.000000 -0.000002 -0.078801 0.338500 -11.804157 1.241970 -3.970971 34.723545 -0.044702 -0.410600 3.343696 0.000003 0.000001 -0.000002 0.078006 2.639737 -1.617482 0.738815 -3.123998 26.605687 0.017763 -0.497864 4.088754 0.000002 -0.000001 -0.000001 -20.903138 3.491032 -4.471760 35.444003 7.979319 0.030064 -17.319265 20.742825 7.366553 -0.035281 0.000010 -0.000005 -0.000000 0.000000 -0.000000 -25.549866 -12.486370 -13.757404 23.731656 -10.050414 -0.860434 4.542459 -23.918733 8.739524 3.297300 -0.000031 0.000003 -0.000000 -0.000001 -0.000000 
8.804259 67.056992 -30.518892 0.915901 -1.493143 -0.094214 5.903181 0.386668 -1.683929 2.452504 0.311330 -1.015523 2.450881 0.275431 -1.026183 5.841374 -0.980239 -0.779465 -0.066384 -7.425306 4.576996 -0.000001 -0.000001 0.000000 0.529452 2.647497 -8.566372 -16.070761 -42.615678 -58.283363 -0.000024 -51.054629 -0.000038 18.458677 11.328963 29.292294 5.842997 11.874444 7.939227 10.757379 18.998183 -7.931667 4.487680 15.334065 -0.369227 0.000001 0.000000 0.000004 -1.218181 1.087986 -40.416497 0.208645 1.685378 -14.111990 0.045899 0.795241 -6.604700 0.000002 -0.000003 0.000000 0.014318 1.189469 -18.895392 0.012586 0.417067 -3.457974 0.008841 0.349584 -2.898121 -0.000003 -0.000001 -0.000002 0.685175 4.270911 -10.528852 0.049238 0.823623 -6.841558 0.000091 0.035136 -0.291185 -0.000001 0.000001 0.000000 0.505934 7.105452 -3.820253 0.038338 -3.232914 -7.333627 0.004359 -0.245198 2.032279 0.000003 0.000001 -0.000001 0.896160 -6.241077 13.314481 -10.922854 44.550117 40.452991 -0.000021 27.442921 0.000010 16.780262 0.216628 -24.106779 -4.484576 -10.438907 -9.211535 11.271052 -19.012018 1.797159 6.538803 -5.780397 -0.246029 0.000003 0.000006 0.000000 0.119824 2.242706 -3.254574 0.875486 -3.382670 29.013575 0.207694 -1.690052 14.011160 0.000001 0.000002 -0.000003 0.447508 4.001691 -6.965446 0.524435 -2.653704 22.353980 0.145281 -1.059968 8.814464 0.000002 0.000000 0.000000 -0.081400 0.316230 -11.703181 1.239488 -3.967408 34.687812 -0.045493 -0.406765 3.312273 0.000001 0.000000 0.000001 0.076472 2.597565 -1.614449 0.742976 -3.132307 26.682192 0.018228 -0.504273 4.141655 0.000001 0.000000 0.000000 -21.031554 3.644667 -4.317205 35.834615 7.876906 -0.184445 -17.544664 20.624035 7.857047 -0.060896 -0.000002 -0.000010 -0.000000 0.000001 -0.000000 -25.604330 -12.445135 -13.721241 23.974866 -10.047890 -0.980269 4.526213 -23.951348 8.866817 3.328421 -0.000038 0.000004 -0.000000 -0.000000 -0.000000 
8.848675 67.020210 -30.493082 0.832990 -1.409507 -0.019166 5.918724 0.363875 -1.717951 2.459371 0.296066 -1.029759 2.457730 0.260127 -1.039895 5.804455 -1.006975 -0.731237 -0.053941 -7.489197 4.528476 -0.000001 0.000001 -0.000000 0.525014 2.576789 -8.469155 -16.024268 -42.597008 -58.350224 -0.000034 -51.148678 -0.000045 18.433639 11.356619 29.335796 5.852160 11.892691 7.951984 10.770337 19.014075 -7.945377 4.484521 15.326939 -0.367489 0.000003 -0.000003 0.000001 -1.231909 1.079360 -40.481155 0.208629 1.685417 -14.112166 0.045961 0.795888 -6.610019 0.000000 0.000001 0.000000 0.021927 1.212684 -18.909737 0.012749 0.419496 -3.478127 0.008818 0.349205 -2.895009 -0.000004 -0.000003 0.000002 0.689563 4.296298 -10.519663 0.049592 0.826535 -6.865872 0.000099 0.036809 -0.305101 -0.000002 0.000002 -0.000002 0.509390 7.130954 -3.832513 0.038760 -3.229709 -7.360204 0.004354 -0.245653 2.036032 -0.000002 -0.000000 0.000001 0.892024 -6.278449 13.251918 -10.827472 44.558296 40.397280 -0.000008 27.454623 -0.000003 16.634326 0.264369 -24.148822 -4.592402 -10.270076 -9.276053 11.153793 -18.839545 1.761004 6.519919 -5.750134 -0.247975 0.000005 -0.000003 -0.000001 0.115405 2.232508 -3.135110 0.874756 -3.381398 29.001089 0.207596 -1.689633 14.007760 0.000001 0.000001 -0.000003 0.442093 3.988874 -6.896883 0.523531 -2.651526 22.334358 0.145000 -1.058769 8.804460 0.000001 -0.000000 -0.000001 -0.081485 0.312329 -11.666563 1.233562 -3.958846 34.601762 -0.045556 -0.406518 3.310189 0.000002 0.000002 -0.000001 0.075674 2.615230 -1.581128 0.737858 -3.122086 26.588106 0.018211 -0.504052 4.139745 0.000001 -0.000000 0.000001 -21.000824 3.547755 -4.561321 35.953474 7.906887 -0.083590 -17.625303 20.749522 7.852294 -0.078253 -0.000003 -0.000001 -0.000001 0.000001 0.000000 -25.788057 -12.514337 -13.959416 24.374266 -10.042927 -0.993170 4.410159 -23.857912 8.899333 3.407315 0.000023 -0.000001 -0.000000 0.000001 -0.000000 
8.896793 67.001144 -30.468180 0.738049 -1.382985 0.087757 5.920568 0.332985 -1.757743 2.463748 0.274941 -1.051933 2.462138 0.238489 -1.061275 5.774051 -1.007695 -0.745720 -0.036886 -7.542561 4.642338 -0.000000 0.000001 -0.000000 0.521266 2.398176 -8.359052 -15.931995 -42.305174 -58.434290 0.000009 -51.281009 -0.000003 18.505513 11.359839 29.398435 5.854098 11.896984 7.956113 10.786105 19.033447 -7.962039 4.474916 15.305283 -0.362178 -0.000001 0.000004 0.000003 -1.230107 1.084889 -40.509487 0.208661 1.685473 -14.112897 0.045937 0.795659 -6.608062 -0.000002 0.000003 -0.000001 0.029563 1.233928 -18.889023 0.012785 0.420333 -3.485238 0.008813 0.349001 -2.893275 0.000001 -0.000002 0.000002 0.691254 4.310343 -10.501178 0.049736 0.827755 -6.876200 0.000105 0.037494 -0.310843 0.000002 0.000000 -0.000000 0.509051 7.135221 -3.826559 0.038872 -3.228899 -7.367079 0.004394 -0.246840 2.045975 -0.000003 0.000000 -0.000001 0.893667 -6.301080 13.262814 -10.880641 44.624959 40.416873 -0.000006 27.244805 0.000026 16.450441 0.583653 -24.108123 -4.659039 -10.163699 -9.298014 11.094303 -18.751846 1.742648 6.505153 -5.726384 -0.249467 0.000003 -0.000000 -0.000001 0.112327 2.228004 -3.047027 0.873423 -3.378954 28.978529 0.206481 -1.685229 13.970267 -0.000003 -0.000001 0.000002 0.441947 3.993384 -6.883728 0.520805 -2.644889 22.275306 0.144818 -1.056589 8.786327 0.000002 0.000000 -0.000002 -0.079637 0.321948 -11.672955 1.228321 -3.951241 34.526022 -0.045056 -0.408203 3.323882 -0.000000 -0.000001 -0.000001 0.075809 2.636164 -1.568015 0.731414 -3.109204 26.469756 0.018072 -0.502290 4.125258 -0.000002 0.000000 0.000005 -20.869585 3.352970 -4.955981 35.900830 7.953977 0.143175 -17.623871 21.063871 7.779119 -0.083929 0.000018 0.000002 0.000000 0.000002 -0.000000 -25.897291 -12.596768 -14.206244 24.623771 -10.047767 -1.003752 4.344069 -23.679641 8.879821 3.468587 -0.000004 -0.000003 0.000000 -0.000000 -0.000000 
